Coordinates
datacolumns 11
datarows 96
range 0 0.95
inDegrees=yes
Units are S.I. units (second, meters, Newtons, ...)
If the header above contains a line with 'inDegrees', this indicates whether rotational values are in degrees (yes) or radians (no).
endheader
time	pelvis_tilt	pelvis_tx	pelvis_ty	hip_flexion_l	hip_flexion_r	knee_angle_l	knee_angle_r	ankle_angle_l	ankle_angle_r	lumbar
0	17.72209318	-0.03886608	0.73001287	56.29377	56.29377	-80.97033872	-80.97033872	4.60787543	4.60787543	-32.11692583
0.01	17.72198545	-0.0388992	0.7300139	56.29375818	56.29375818	-80.9703884	-80.9703884	4.60788454	4.60788454	-32.11694009
0.02	17.72185521	-0.0389289	0.73001485	56.29387418	56.29387418	-80.9703691	-80.9703691	4.60790637	4.60790637	-32.11722342
0.03	17.71498718	-0.03903786	0.73001243	56.30712747	56.30712747	-80.96334293	-80.96334293	4.60977194	4.60977194	-32.14810121
0.04	17.71463083	-0.03905479	0.73001552	56.30716736	56.30716736	-80.96331555	-80.96331555	4.60980313	4.60980313	-32.14843144
0.05	17.70455575	-0.0391506	0.7300215	56.32069369	56.32069369	-80.95456542	-80.95456542	4.61251578	4.61251578	-32.18193912
0.06	17.69549137	-0.0391527	0.73005231	56.3233599	56.3233599	-80.95224371	-80.95224371	4.61363261	4.61363261	-32.19393868
0.07	17.68301459	-0.03923425	0.73006059	56.33827492	56.33827492	-80.9421742	-80.9421742	4.61732646	4.61732646	-32.23067174
0.08	17.67040252	-0.03919223	0.73009156	56.33731096	56.33731096	-80.94255021	-80.94255021	4.61774609	4.61774609	-32.23862838
0.09	17.64939377	-0.03931024	0.73010381	56.36406047	56.36406047	-80.92584562	-80.92584562	4.62427119	4.62427119	-32.30109723
0.1	17.62418196	-0.03934259	0.73012709	56.38042021	56.38042021	-80.90677518	-80.90677518	4.6380136	4.6380136	-32.3394891
0.11	17.59813251	-0.03933603	0.73015282	56.39807743	56.39807743	-80.89771662	-80.89771662	4.64640603	4.64640603	-32.38610658
0.12	17.56900944	-0.03933302	0.73017637	56.41874477	56.41874477	-80.88738163	-80.88738163	4.65577326	4.65577326	-32.43881192
0.13	17.53623836	-0.03932082	0.73020051	56.44197617	56.44197617	-80.8765854	-80.8765854	4.66593223	4.66593223	-32.49772421
0.14	17.49955364	-0.03928539	0.73022158	56.46806228	56.46806228	-80.86577741	-80.86577741	4.67655071	4.67655071	-32.56441649
0.15	17.4594044	-0.03923402	0.73024209	56.49704024	56.49704024	-80.85512296	-80.85512296	4.6878888	4.6878888	-32.63853365
0.16	17.41505873	-0.03919202	0.73025805	56.53124656	56.53124656	-80.84351327	-80.84351327	4.70561405	4.70561405	-32.7180155
0.17	17.36732922	-0.03910524	0.73027675	56.56724961	56.56724961	-80.83473618	-80.83473618	4.72147275	4.72147275	-32.80697522
0.18	17.3163491	-0.03900137	0.73029571	56.60660519	56.60660519	-80.82706703	-80.82706703	4.73813398	4.73813398	-32.90452108
0.19	17.26154297	-0.03887623	0.73031546	56.64936834	56.64936834	-80.82048071	-80.82048071	4.75584	4.75584	-33.01069055
0.2	17.20242313	-0.03872963	0.73033611	56.69575925	56.69575925	-80.81474407	-80.81474407	4.77469553	4.77469553	-33.12565872
0.21	17.13839921	-0.03856269	0.73035775	56.7461036	56.7461036	-80.80938576	-80.80938576	4.7946401	4.7946401	-33.24974458
0.22	17.06878817	-0.03837797	0.7303802	56.80088962	56.80088962	-80.80374172	-80.80374172	4.81549419	4.81549419	-33.38342482
0.23	16.9928279	-0.0381793	0.73040268	56.86083273	56.86083273	-80.79710965	-80.79710965	4.83703537	4.83703537	-33.52736283
0.24	16.90969695	-0.03797125	0.73042375	56.92687798	56.92687798	-80.78889529	-80.78889529	4.85907731	4.85907731	-33.6823718
0.25	16.81853038	-0.03775809	0.73044152	57.00011119	57.00011119	-80.77869208	-80.77869208	4.88153069	4.88153069	-33.8492146
0.26	16.71844761	-0.03754192	0.7304548	57.08154413	57.08154413	-80.76628415	-80.76628415	4.90441848	4.90441848	-34.02833859
0.27	16.41374465	-0.03713477	0.72996499	57.41532989	57.41532989	-80.80575356	-80.80575356	5.18700763	5.18700763	-33.96362415
0.28	16.30918894	-0.03691265	0.73001545	57.49447066	57.49447066	-80.78740092	-80.78740092	5.19354632	5.19354632	-34.18419025
0.29	16.19334327	-0.03667157	0.73005981	57.58393913	57.58393913	-80.76594329	-80.76594329	5.20178135	5.20178135	-34.41664938
0.3	16.06574812	-0.0364081	0.73010462	57.68258114	57.68258114	-80.74221917	-80.74221917	5.21173908	5.21173908	-34.65874772
0.31	15.92611787	-0.03611925	0.73014934	57.7905215	57.7905215	-80.71643946	-80.71643946	5.22356843	5.22356843	-34.91017869
0.32	15.77407748	-0.03580384	0.73019246	57.90809042	57.90809042	-80.6886585	-80.6886585	5.23745387	5.23745387	-35.17071181
0.33	15.22995866	-0.03522866	0.72935785	58.49083965	58.49083965	-80.69986069	-80.69986069	5.39707662	5.39707662	-34.95953787
0.34	15.08764685	-0.03485224	0.72943955	58.59636199	58.59636199	-80.68410444	-80.68410444	5.40295245	5.40295245	-35.27639224
0.35	14.92754563	-0.03445454	0.72952828	58.71171891	58.71171891	-80.65722904	-80.65722904	5.41210276	5.41210276	-35.59853739
0.36	14.7514331	-0.03403187	0.72961432	58.83871621	58.83871621	-80.6235137	-80.6235137	5.4244078	5.4244078	-35.92760597
0.37	14.55942426	-0.03357795	0.72969335	58.97837605	58.97837605	-80.58559723	-80.58559723	5.43990427	5.43990427	-36.26337912
0.38	14.34970442	-0.03307365	0.72975584	59.13192665	59.13192665	-80.54496467	-80.54496467	5.4590854	5.4590854	-36.60221387
0.39	13.72977416	-0.03230625	0.72885489	59.78523882	59.78523882	-80.56463102	-80.56463102	5.62870311	5.62870311	-36.44245448
0.4	13.52525168	-0.03173537	0.72897317	59.92887584	59.92887584	-80.53014239	-80.53014239	5.64052506	5.64052506	-36.83774429
0.41	13.29982991	-0.03112137	0.72908633	60.08836862	60.08836862	-80.4882214	-80.4882214	5.65666123	5.65666123	-37.23508985
0.42	13.05138675	-0.03043479	0.72918449	60.266155	60.266155	-80.44192357	-80.44192357	5.67773635	5.67773635	-37.63049118
0.43	12.37992287	-0.02950352	0.72827503	60.95859689	60.95859689	-80.45576002	-80.45576002	5.83806003	5.83806003	-37.51614873
0.44	12.13820198	-0.02872674	0.72844333	61.12170582	61.12170582	-80.41826954	-80.41826954	5.85156664	5.85156664	-37.97116221
0.45	11.87224946	-0.02789564	0.72861195	61.30169884	61.30169884	-80.37182755	-80.37182755	5.87029447	5.87029447	-38.42529978
0.46	11.57734816	-0.02698555	0.72876414	61.50325431	61.50325431	-80.31895564	-80.31895564	5.89590014	5.89590014	-38.87033982
0.47	10.75992761	-0.02581362	0.72765226	62.3396575	62.3396575	-80.33663072	-80.33663072	6.10509732	6.10509732	-38.68206233
0.48	10.47469156	-0.02480525	0.72786995	62.52312726	62.52312726	-80.29611576	-80.29611576	6.12104726	6.12104726	-39.19088804
0.49	10.15069235	-0.02373676	0.72805783	62.73614385	62.73614385	-80.24003387	-80.24003387	6.14586877	6.14586877	-39.68118498
0.5	9.22115016	-0.022395	0.72678415	63.67644709	63.67644709	-80.24724789	-80.24724789	6.34973601	6.34973601	-39.43417263
0.51	8.90207948	-0.02119542	0.72703347	63.87578684	63.87578684	-80.20494564	-80.20494564	6.36695567	6.36695567	-39.9767475
0.52	7.9757293	-0.01971507	0.725876	64.78467611	64.78467611	-80.1978619	-80.1978619	6.55082996	6.55082996	-39.774192
0.53	7.64064821	-0.0183187	0.72619678	64.97910889	64.97910889	-80.15269964	-80.15269964	6.5676053	6.5676053	-40.33949886
0.54	6.76232997	-0.01670372	0.72535432	65.78147822	65.78147822	-80.08949208	-80.08949208	6.76005989	6.76005989	-40.24143042
0.55	6.40720178	-0.01506278	0.72575221	65.97558254	65.97558254	-80.05426741	-80.05426741	6.77813754	6.77813754	-40.81292263
0.56	5.49348239	-0.01322336	0.72493635	66.79930926	66.79930926	-80.00885253	-80.00885253	7.00740285	7.00740285	-40.70520165
0.57	4.80291303	-0.01133772	0.72474164	67.34329289	67.34329289	-79.94618279	-79.94618279	7.15399295	7.15399295	-40.89106253
0.58	4.08784343	-0.00933627	0.72457087	67.89948234	67.89948234	-79.87599245	-79.87599245	7.31003003	7.31003003	-41.0621692
0.59	3.34763835	-0.00719584	0.72442867	68.46991045	68.46991045	-79.8140336	-79.8140336	7.47384923	7.47384923	-41.21663057
0.6	2.58110152	-0.00494872	0.72431358	69.05230579	69.05230579	-79.73538822	-79.73538822	7.64474426	7.64474426	-41.3489841
0.61	1.78501355	-0.00258384	0.72423459	69.64994038	69.64994038	-79.64872807	-79.64872807	7.8222471	7.8222471	-41.45858846
0.62	0.95979658	-9.319e-05	0.72420167	70.26116639	70.26116639	-79.55159396	-79.55159396	8.00367262	8.00367262	-41.54496638
0.63	0.09907389	0.00252589	0.72420018	70.89091629	70.89091629	-79.44096774	-79.44096774	8.18832251	8.18832251	-41.59592246
0.64	-0.79745933	0.00527238	0.72422512	71.54212987	71.54212987	-79.31943827	-79.31943827	8.37233277	8.37233277	-41.61144281
0.65	-1.73359921	0.00814557	0.72427954	72.21648243	72.21648243	-79.18303796	-79.18303796	8.55454203	8.55454203	-41.58247179
0.66	-2.7117636	0.01115689	0.72435677	72.91714247	72.91714247	-79.03177717	-79.03177717	8.73336708	8.73336708	-41.5036696
0.67	-3.51511131	0.01431133	0.72511248	73.35409765	73.35409765	-78.80527953	-78.80527953	8.84557671	8.84557671	-41.6641611
0.68	-4.78342197	0.01754598	0.72463349	74.37638019	74.37638019	-78.68079224	-78.68079224	9.08353946	9.08353946	-41.20882287
0.69	-5.86509529	0.02092983	0.7248629	75.11923238	75.11923238	-78.47804309	-78.47804309	9.23782078	9.23782078	-41.00154333
0.7	-6.96509166	0.02442258	0.7251735	75.857927	75.857927	-78.25746011	-78.25746011	9.39408671	9.39408671	-40.76865159
0.71	-8.0759645	0.02802632	0.72557502	76.58497676	76.58497676	-78.02121506	-78.02121506	9.54130324	9.54130324	-40.51633961
0.72	-9.17999246	0.03174101	0.72608236	77.28317082	77.28317082	-77.77416674	-77.77416674	9.69223082	9.69223082	-40.26012896
0.73	-10.27364816	0.0355669	0.72668943	77.94890398	77.94890398	-77.51224405	-77.51224405	9.83469845	9.83469845	-39.9968676
0.74	-11.33649478	0.03950654	0.72741282	78.56697133	78.56697133	-77.24787419	-77.24787419	9.9815514	9.9815514	-39.74387134
0.75	-12.36531535	0.04355103	0.7282321	79.13521887	79.13521887	-76.98307469	-76.98307469	10.12614415	10.12614415	-39.50032721
0.76	-13.3551409	0.04768888	0.7291591	79.65336714	79.65336714	-76.72054035	-76.72054035	10.28081464	10.28081464	-39.26926732
0.77	-14.26946566	0.05195562	0.73019199	80.0856374	80.0856374	-76.46707766	-76.46707766	10.43781039	10.43781039	-39.05843008
0.78	-15.12841264	0.05629705	0.73132359	80.45669554	80.45669554	-76.22365533	-76.22365533	10.60596004	10.60596004	-38.86185032
0.79	-15.917787	0.06070067	0.73255221	80.75345984	80.75345984	-75.99142311	-75.99142311	10.78602703	10.78602703	-38.68644743
0.8	-16.63448417	0.06515682	0.73388236	80.97470189	80.97470189	-75.77037501	-75.77037501	10.97769272	10.97769272	-38.52816649
0.81	-17.27915161	0.06963852	0.73531268	81.12197865	81.12197865	-75.55897387	-75.55897387	11.18254675	11.18254675	-38.38556543
0.82	-17.76922744	0.07416586	0.73708457	81.09432514	81.09432514	-75.3363619	-75.3363619	11.27762501	11.27762501	-38.3698295
0.83	-18.37714039	0.07860995	0.73843855	81.22718876	81.22718876	-75.16687624	-75.16687624	11.62459518	11.62459518	-38.11556163
0.84	-18.7728347	0.08308917	0.74033285	81.10700997	81.10700997	-74.94717331	-74.94717331	11.71561393	11.71561393	-38.06406083
0.85	-19.1924184	0.08750501	0.74212695	81.02228241	81.02228241	-74.74894521	-74.74894521	12.09681238	12.09681238	-37.91943451
0.86	-19.53757005	0.09185916	0.74418395	80.84465063	80.84465063	-74.50708242	-74.50708242	12.1968331	12.1968331	-37.81753133
0.87	-19.85755934	0.09615211	0.74630017	80.63657789	80.63657789	-74.25450146	-74.25450146	12.35489008	12.35489008	-37.68466413
0.88	-20.10240816	0.10045317	0.74860635	80.33749347	80.33749347	-74.00337871	-74.00337871	12.77048488	12.77048488	-37.58662621
0.89	-20.40739891	0.10457921	0.75094183	80.08862092	80.08862092	-73.68572719	-73.68572719	12.84327192	12.84327192	-37.3860422
0.9	-20.67743205	0.1086706	0.75343398	79.78557866	79.78557866	-73.33841127	-73.33841127	12.97210168	12.97210168	-37.188867
0.91	-20.84309208	0.11279159	0.75625989	79.34515506	79.34515506	-72.96881938	-72.96881938	13.30084789	13.30084789	-37.08404402
0.92	-21.14638077	0.11669488	0.75889475	79.04884256	79.04884256	-72.54651083	-72.54651083	13.35700395	13.35700395	-36.78132077
0.93	-21.42267396	0.12054163	0.76172664	78.70544808	78.70544808	-72.08804777	-72.08804777	13.43314314	13.43314314	-36.49171707
0.94	-21.564596	0.12446395	0.76495157	78.1926724	78.1926724	-71.6005602	-71.6005602	13.63644144	13.63644144	-36.34053637
0.95	-21.87001623	0.12813797	0.76790698	77.85880038	77.85880038	-71.07484728	-71.07484728	13.66929417	13.66929417	-35.96039209
